<?xml version="1.0" encoding="UTF-8"?>
<svg id="Layer_1" xmlns="http://www.w3.org/2000/svg" version="1.1" viewBox="0 0 256 256">
  <!-- Generator: Adobe Illustrator 30.1.0, SVG Export Plug-In . SVG Version: 2.1.1 Build 136)  -->
  <path d="M128,44.039c-4.526,0-9.006.282-13.391.887L71.683,2h-35.134l-6.345,6.345c-4.995,5.04-4.995,13.159,0,18.194l36.953,36.953c-26.732,18.991-44.135,50.208-44.135,85.529,0,57.995,46.983,104.978,104.978,104.978s104.978-46.983,104.978-104.978-47.033-104.978-104.978-104.978v-.005ZM128,207.34c-32.241,0-58.323-26.127-58.323-58.323,0-22.488,12.691-41.993,31.354-51.695,8.074-4.244,17.262-6.628,26.969-6.628,18.85,0,35.648,8.956,46.287,22.861,7.56,9.798,12.036,22.116,12.036,35.461,0,32.196-26.127,58.323-58.323,58.323Z" fill="#ff0"/>
</svg>