<?xml version="1.0" encoding="UTF-8"?>
<svg id="Layer_1" xmlns="http://www.w3.org/2000/svg" version="1.1" viewBox="0 0 180 180">
  <!-- Generator: Adobe Illustrator 30.2.1, SVG Export Plug-In . SVG Version: 2.1.1 Build 1)  -->
  <defs>
    <style>
      .st0 {
        fill: #ff0;
      }
    </style>
  </defs>
  <path class="st0" d="M90,51.68c-2.07,0-4.11.13-6.11.4l-19.59-19.59h-16.03l-2.9,2.9c-2.28,2.3-2.28,6.01,0,8.3l16.86,16.86c-12.2,8.67-20.14,22.91-20.14,39.03,0,26.47,21.44,47.91,47.91,47.91s47.91-21.44,47.91-47.91-21.46-47.91-47.91-47.91h0s0,0,0,0ZM90,126.21c-14.71,0-26.62-11.92-26.62-26.62,0-10.26,5.79-19.16,14.31-23.59,3.68-1.94,7.88-3.02,12.31-3.02,8.6,0,16.27,4.09,21.12,10.43,3.45,4.47,5.49,10.09,5.49,16.18,0,14.69-11.92,26.62-26.62,26.62h0Z"/>
</svg>