<?xml version="1.0" encoding="UTF-8"?>
<svg id="Layer_1" xmlns="http://www.w3.org/2000/svg" version="1.1" viewBox="0 0 512 512">
  <!-- Generator: Adobe Illustrator 30.2.1, SVG Export Plug-In . SVG Version: 2.1.1 Build 1)  -->
  <rect width="512" height="512" fill="#afff92"/>
  <g>
    <g opacity=".2">
      <ellipse cx="265.378" cy="418.129" rx="112.9" ry="12.871" fill="#000072"/>
    </g>
    <g>
      <path d="M308.82,284.177c-5.692,1.732-12.115,3.142-19.08,4.166l-2.639-16.142c6.235,0,11.634,2.694,16.364,6.672,0,.006.005.011.011.017,1.886,1.588,3.668,3.38,5.344,5.289Z" fill="#535360"/>
      <path d="M305.486,280.695c-4.84,1.632-10.35,2.982-16.347,3.994l-2.041-12.491c6.235,0,11.634,2.694,16.364,6.672,0,.006.006.011.011.017.686.575,1.355,1.184,2.014,1.809Z" fill="#93b3c1"/>
      <g>
        <path d="M227.249,344.8c-22.681,19.915-63.433,11.617-63.433,11.617v-44.117s23.511,2.074,32.085-.692c9.213-3.011,11.24-36.693,43.211-36.693" fill="#777782"/>
        <path d="M239.11,274.914l-11.859,69.889c-22.683,19.911-63.436,11.613-63.436,11.613v-44.116s23.514,2.076,32.084-.69c6.092-1.992,9.046-17.396,19.592-27.598v-.005c.586-.57,1.192-1.119,1.83-1.652,5.135-4.303,11.922-7.346,21.349-7.435.146-.005.293-.005.439-.005Z" fill="#777782"/>
        <path d="M239.11,274.914l-2.311,13.626-9.548,56.262c-22.683,19.911-63.436,11.613-63.436,11.613v-44.116s23.514,2.076,32.084-.69c6.092-1.992,9.046-17.396,19.592-27.598v-.005c.565-.549,1.15-1.082,1.767-1.6.021-.016.042-.037.063-.052,5.135-4.303,11.922-7.346,21.349-7.435.146-.005.293-.005.439-.005Z" fill="#5f5f82"/>
        <g opacity=".2">
          <path d="M239.11,274.914l-2.311,13.626c-7.284-1.49-13.888-3.577-19.54-6.133.021-.016.042-.037.063-.052,5.135-4.303,11.922-7.346,21.349-7.435.146-.005.293-.005.439-.005Z" fill="#000072"/>
        </g>
        <path d="M308.941,282.396c-5.647,2.562-12.251,4.648-19.53,6.139l-2.311-13.621c.146,0,.293,0,.439.005,9.428.089,16.215,3.132,21.349,7.435.016.016.037.031.052.042Z" fill="#535360"/>
        <path d="M302.332,285.021c-10.986,3.822-24.555,6.076-39.242,6.076s-28.236-2.248-39.216-6.065c5.516-7.733,26.913-36.607,39.237-36.607s33.7,28.847,39.221,36.597Z" fill="#535360"/>
        <g opacity=".7">
          <path d="M215.492,284.012c-7.566,11.974-10.17,28.246-19.143,31.033-6.17,1.914-24.298.978-32.534.424v-3.169s23.514,2.076,32.084-.69c6.092-1.992,9.046-17.396,19.592-27.598Z" fill="#fff"/>
        </g>
        <g opacity=".2">
          <path d="M229.819,329.073l-2.572,15.727c-22.681,19.915-63.43,11.617-63.43,11.617v-16.85c3.961-3.026,9.526-5.471,14.129-.697,12.945,13.432,23.516-.819,33.728-18.001,5.515-9.272,12.718-1.134,18.145,8.204Z" fill="#000072"/>
        </g>
        <path d="M183.654,360.271c-11.118,0-19.497-1.65-20.255-1.804-.974-.198-1.674-1.056-1.674-2.05v-44.118c0-.587.246-1.146.679-1.542.433-.396,1.01-.597,1.596-.541.231.02,23.186,2.005,31.26-.599,2.209-.722,4.465-5.027,6.853-9.584,5.678-10.836,14.259-27.209,37-27.209,1.155,0,2.091.936,2.091,2.091s-.936,2.091-2.091,2.091c-20.21,0-27.773,14.431-33.295,24.968-3.036,5.793-5.434,10.369-9.266,11.621-7.357,2.374-24.437,1.415-30.644.966v40.097c7.793,1.247,40.881,5.323,59.962-11.43.868-.762,2.19-.677,2.952.192.762.868.676,2.189-.192,2.951-12.888,11.317-31.072,13.899-44.976,13.899Z" fill="#000072"/>
        <path d="M177.885,341.681c-.664,4.995-4.503,8.89-11.219,12.237-5.255,2.617-8.812,7.258-13.205,10.511-1.295.963-2.661,1.798-4.166,2.429-3.994,1.676-11.164,2.877-13.033-2.268-1.743-4.785,2.246-7.297,5.228-9.476,1.743-1.272,3.142-2.434,2.843-3.861-1.455.769-2.86,1.383-4.199,1.848-1.599.553-3.109.902-4.514,1.073h-.011c-6.622.802-10.904-2.362-11.009-6.71-.155-6.522,6.279-7.33,11.412-7.822,1.532-.149,2.949-.266,4.038-.498h.006c.675-.144,1.223-.332,1.599-.603-1.173-.188-2.252-.426-3.247-.719h-.006c-8.243-2.39-10.522-8.132-9.249-14.212,1.228-5.836,6.174-8.696,10.306-8.558,1.953.066,3.723.802,4.829,2.224,0,.006.006.011.011.022.033.044.061.089.094.133.022.028.039.05.044.055v.006c.155.216.299.443.42.686,1.914,3.872-1.566,6.102.509,8.348,1.294,1.405,5.112.907,7.153-.426,3.12-2.036,4.403-5.963,2.534-7.562-2.251-1.92-6.118,1.543-9.487-.791-.028-.017-.055-.039-.083-.061-.138-.105-.271-.21-.404-.321-.044-.033-.088-.066-.127-.111-1.372-1.278-2.169-4.005-1.394-6.744.846-2.998,3.579-6.008,9.509-7.142,6.876-1.317,10.832,2.772,13.559,7.142h.006c2.025,3.236,3.38,6.627,4.763,8.088l6.389,19.069c.243,1.416.277,2.755.1,4.016Z" fill="#5f5f82"/>
        <g opacity=".7">
          <path d="M128.827,345.155c-2.157,3.092.979,8.248,6.782,9.017-6.622.802-10.904-2.362-11.009-6.71-.155-6.522,6.279-7.33,11.412-7.822,1.532-.149,2.949-.266,4.038-.498h.006c-.752,3.756-8.497,2.097-11.23,6.013Z" fill="#fff"/>
        </g>
        <g opacity=".7">
          <path d="M144.439,317.484c.21.16-7.236-1.671-10.621,3.192-6.223,8.945,4.586,17.144,4.586,17.144-8.243-2.39-10.522-8.132-9.249-14.212,1.228-5.836,6.174-8.696,10.306-8.558,1.953.066,3.723.802,4.829,2.224,0,.006.006.011.011.022.072.105.122.172.138.188Z" fill="#fff"/>
        </g>
        <g opacity=".7">
          <path d="M166.627,310.508c-12.093-9.415-24.501-.011-21.06,7.236,0,.006.006.006.006.011-.028-.022-.061-.044-.089-.072-.138-.105-.271-.21-.404-.321-.044-.033-.088-.066-.127-.111-1.372-1.278-2.169-4.005-1.394-6.744.846-2.998,3.579-6.008,9.509-7.142,6.876-1.317,10.832,2.772,13.559,7.142Z" fill="#fff"/>
        </g>
        <g opacity=".2">
          <path d="M177.885,341.681c-.664,4.995-4.503,8.89-11.219,12.237-5.255,2.617-8.812,7.258-13.205,10.511-.039-2.357-.448-5.477-2.163-7.192-2.716-2.722-7.003-2.506-9.808-2.124,1.743-1.272,3.142-2.434,2.843-3.861-1.455.769-2.86,1.383-4.199,1.848.758-1.947,1.129-4.768.232-7.529-.736-2.251-2.932-4.586-4.354-5.93,2.484-.238,4.663-.398,5.643-1.101-1.173-.188-2.252-.426-3.247-.719,2.146-.752,4.211-3.174,4.119-5.893s-2.016-5.392-1.104-7.931c1.101-3.048,1.366-4.935-1.964-8.945,2.334.078,4.403,1.117,5.399,3.126,1.914,3.872-1.566,6.102.509,8.348,1.294,1.405,5.112.907,7.153-.426,3.12-2.036,4.403-5.963,2.534-7.562-2.39-2.036-6.594,1.986-10.101-1.283-1.372-1.278-2.169-4.005-1.394-6.744.133.221.249.487.354.791,2.296,6.821,8.205.579,12.679,3.419,4.633,2.94.207,15.18,8.091,14.834-3.043,3.872-10.721-2.121-15.835,1.936-5.874,4.66-3.933,13.788-.138,18.092,5.809,6.594,10.328,1.798,18.903-.326,5.515-1.372,8.702-5.095,10.273-7.573Z" fill="#000072"/>
        </g>
        <path d="M171.394,318.594c-2.056-1.651-3.357-4.118-4.94-6.158-1.495-2.068-3.119-3.975-4.952-5.304-1.837-1.336-3.857-1.948-5.995-1.845-4.775.255-11.296,3.384-9.782,9.033,1.178,3.889,5.189,1.16,8.119,1.544,5.034.682,5.034,6.387,2.365,9.615-1.944,2.632-5.255,4.086-8.575,3.969-1.123-.016-2.862-.432-3.809-1.513-.131-.15-.271-.309-.389-.48-.681-.849-.983-2.333-.793-3.355.13-1.011.562-2.073.674-2.883.14-.874-.037-1.618-.471-2.352-1.617-2.413-5.247-2.018-7.66-.575-2.822,1.618-4.236,4.935-4.263,8.137-.27,6.313,5.486,9.267,11.108,10.056,1.834.248,2.372,2.771.843,3.76-2.14,1.327-4.26,1.163-6.522,1.466-3.034.347-7.024.544-8.892,2.836-.742.972-.912,2.483-.667,3.694.642,2.862,3.939,3.994,6.772,3.964,3.291.012,6.714-1.176,9.84-2.824,1.195-.654,2.747.108,2.977,1.443.379,1.42-.32,3.054-1.195,3.998-2.052,2.346-4.971,3.517-6.491,5.973-.728,1.168-.399,2.778.367,3.791,1.557,1.616,4.07,1.253,6.24.886,2.762-.565,5.074-1.78,7.321-3.517,3.505-2.707,6.982-6.567,11.086-8.945,1.348-.816,2.84-1.42,4.216-2.179,5.454-2.906,9.575-6.666,9.861-13.162,2.274,4.832.151,10.459-3.713,13.836-2.361,2.279-5.245,3.644-7.995,5.312-3.861,2.582-6.572,5.95-10.391,9.034-4.576,3.801-12.015,6.544-17.831,3.977-3.101-1.46-4.818-5.007-4.407-8.361.243-2.145,1.552-4.062,3.035-5.412,1.922-1.845,4.161-2.755,5.762-4.474.026-.038.009.086.042.105l3.026,1.417c-3.532,1.838-7.458,3.277-11.766,3.285-4.487.131-9.871-2.351-10.842-7.254-.845-3.647.803-7.812,4.23-9.479,2.791-1.5,6.09-1.819,9.021-2.108,1.464-.174,3.217-.196,4.484-.704,0,0,.889,3.767.889,3.767-4.146-.649-8.726-2.23-11.629-5.636-5.102-5.931-3.447-16.293,3.334-20.269,4.956-3.162,12.985-2.147,14.366,4.464.462,1.85-.223,3.856-.611,5.494-.018.283-.042.237.089.41,0,0,.025.033.025.033,0-.003-.006-.01-.011-.014-.019-.015-.02-.014,0-.003.077.058.473.174.914.183,1.892.054,3.894-.708,5.076-2.325.652-.892,1.184-2.015.84-2.787-.102-.078-.12-.102-.319-.118-.916-.033-2.204.351-3.316.526-2.578.558-5.686-.274-7.342-2.502-2.619-3.497-2.159-8.562.48-11.865,2.206-2.804,5.537-4.266,8.884-4.924,4.072-.934,8.725.103,11.722,3.072,2.169,2.04,3.515,4.523,4.599,6.96,1.113,2.417,1.688,4.969,2.962,7.289h0Z" fill="#000072"/>
        <path d="M144.56,333.124c-1.098,5.929-1.203,12.094,2.641,16.987,1.161,1.599,2.662,3.02,4.239,4.588-1.092-.202-2.163-.538-3.172-1.031-7.939-3.638-9.481-14.318-3.708-20.544h0Z" fill="#000072"/>
      </g>
      <g>
        <path d="M298.961,344.8c22.681,19.915,63.433,11.617,63.433,11.617v-44.117s-23.511,2.074-32.085-.692c-9.213-3.011-11.24-36.693-43.211-36.693" fill="#777782"/>
        <path d="M287.1,274.914l11.859,69.889c22.683,19.911,63.436,11.613,63.436,11.613v-44.116s-23.514,2.076-32.084-.69c-6.092-1.992-9.046-17.396-19.592-27.598v-.005c-.586-.57-1.192-1.119-1.83-1.652-5.135-4.303-11.922-7.346-21.349-7.435-.146-.005-.293-.005-.439-.005Z" fill="#5f5f82"/>
        <g opacity=".2">
          <path d="M308.941,282.396c-5.647,2.562-12.251,4.648-19.53,6.139l-2.311-13.621c.146,0,.293,0,.439.005,9.428.089,16.215,3.132,21.349,7.435.016.016.037.031.052.042Z" fill="#000072"/>
        </g>
        <g opacity=".7">
          <path d="M310.718,284.012c7.566,11.974,10.17,28.246,19.143,31.033,6.17,1.914,24.298.978,32.534.424v-3.169s-23.514,2.076-32.084-.69c-6.092-1.992-9.046-17.396-19.592-27.598Z" fill="#fff"/>
        </g>
        <g opacity=".2">
          <path d="M296.391,329.073l2.572,15.727c22.681,19.915,63.43,11.617,63.43,11.617v-16.85c-3.961-3.026-9.526-5.471-14.129-.697-12.945,13.432-23.516-.819-33.728-18.001-5.515-9.272-12.718-1.134-18.145,8.204Z" fill="#000072"/>
        </g>
        <path d="M342.557,360.271c-13.904,0-32.086-2.581-44.976-13.899-.868-.762-.954-2.083-.192-2.951.762-.869,2.084-.954,2.952-.192,19.103,16.774,52.171,12.683,59.962,11.432v-40.098c-6.207.449-23.285,1.408-30.636-.964-3.84-1.255-6.238-5.831-9.274-11.624-5.522-10.537-13.084-24.968-33.295-24.968-1.155,0-2.091-.936-2.091-2.091s.936-2.091,2.091-2.091c22.741,0,31.322,16.374,37,27.209,2.388,4.558,4.644,8.863,6.861,9.587,8.066,2.602,31.021.617,31.252.597.584-.057,1.163.144,1.596.541s.679.956.679,1.542v44.118c0,.994-.7,1.851-1.674,2.05-.758.154-9.14,1.804-20.255,1.804Z" fill="#000072"/>
        <path d="M348.325,341.681c.664,4.995,4.503,8.89,11.219,12.237,5.255,2.617,8.812,7.258,13.205,10.511,1.295.963,2.661,1.798,4.166,2.429,3.994,1.676,11.164,2.877,13.033-2.268,1.743-4.785-2.246-7.297-5.228-9.476-1.743-1.272-3.142-2.434-2.843-3.861,1.455.769,2.86,1.383,4.199,1.848,1.599.553,3.109.902,4.514,1.073h.011c6.622.802,10.904-2.362,11.009-6.71.155-6.522-6.279-7.33-11.412-7.822-1.532-.149-2.949-.266-4.038-.498h-.006c-.675-.144-1.223-.332-1.599-.603,1.173-.188,2.252-.426,3.247-.719h.006c8.243-2.39,10.522-8.132,9.249-14.212-1.228-5.836-6.174-8.696-10.306-8.558-1.953.066-3.723.802-4.829,2.224,0,.006-.006.011-.011.022-.033.044-.061.089-.094.133-.022.028-.039.05-.044.055v.006c-.155.216-.299.443-.42.686-1.914,3.872,1.566,6.102-.509,8.348-1.294,1.405-5.112.907-7.153-.426-3.12-2.036-4.403-5.963-2.534-7.562,2.251-1.92,6.118,1.543,9.487-.791.028-.017.055-.039.083-.061.138-.105.271-.21.404-.321.044-.033.088-.066.127-.111,1.372-1.278,2.169-4.005,1.394-6.744-.846-2.998-3.579-6.008-9.509-7.142-6.876-1.317-10.832,2.772-13.559,7.142h-.006c-2.025,3.236-3.38,6.627-4.763,8.088l-6.389,19.069c-.243,1.416-.277,2.755-.1,4.016Z" fill="#5f5f82"/>
        <g opacity=".7">
          <path d="M397.383,345.155c2.157,3.092-.979,8.248-6.782,9.017,6.622.802,10.904-2.362,11.009-6.71.155-6.522-6.279-7.33-11.412-7.822-1.532-.149-2.949-.266-4.038-.498h-.006c.752,3.756,8.497,2.097,11.23,6.013Z" fill="#fff"/>
        </g>
        <g opacity=".7">
          <path d="M381.772,317.484c-.21.16,7.236-1.671,10.621,3.192,6.223,8.945-4.586,17.144-4.586,17.144,8.243-2.39,10.522-8.132,9.249-14.212-1.228-5.836-6.174-8.696-10.306-8.558-1.953.066-3.723.802-4.829,2.224,0,.006-.006.011-.011.022-.072.105-.122.172-.138.188Z" fill="#fff"/>
        </g>
        <g opacity=".7">
          <path d="M359.583,310.508c12.093-9.415,24.501-.011,21.06,7.236,0,.006-.006.006-.006.011.028-.022.061-.044.089-.072.138-.105.271-.21.404-.321.044-.033.088-.066.127-.111,1.372-1.278,2.169-4.005,1.394-6.744-.846-2.998-3.579-6.008-9.509-7.142-6.876-1.317-10.832,2.772-13.559,7.142Z" fill="#fff"/>
        </g>
        <g opacity=".2">
          <path d="M348.325,341.681c.664,4.995,4.503,8.89,11.219,12.237,5.255,2.617,8.812,7.258,13.205,10.511.039-2.357.448-5.477,2.163-7.192,2.716-2.722,7.003-2.506,9.808-2.124-1.743-1.272-3.142-2.434-2.843-3.861,1.455.769,2.86,1.383,4.199,1.848-.758-1.947-1.129-4.768-.232-7.529.736-2.251,2.932-4.586,4.354-5.93-2.484-.238-4.663-.398-5.643-1.101,1.173-.188,2.252-.426,3.247-.719-2.146-.752-4.211-3.174-4.119-5.893s2.016-5.392,1.104-7.931c-1.101-3.048-1.366-4.935,1.964-8.945-2.334.078-4.403,1.117-5.399,3.126-1.914,3.872,1.566,6.102-.509,8.348-1.294,1.405-5.112.907-7.153-.426-3.12-2.036-4.403-5.963-2.534-7.562,2.39-2.036,6.594,1.986,10.101-1.283,1.372-1.278,2.169-4.005,1.394-6.744-.133.221-.249.487-.354.791-2.296,6.821-8.205.579-12.679,3.419-4.633,2.94-.207,15.18-8.091,14.834,3.043,3.872,10.721-2.121,15.835,1.936,5.874,4.66,3.933,13.788.138,18.092-5.809,6.594-10.328,1.798-18.903-.326-5.515-1.372-8.702-5.095-10.273-7.573Z" fill="#000072"/>
        </g>
        <path d="M354.816,318.594c1.274-2.32,1.85-4.872,2.962-7.289,1.084-2.437,2.43-4.921,4.598-6.96,3-2.966,7.649-4.008,11.722-3.072,3.347.657,6.678,2.12,8.884,4.924,2.639,3.303,3.099,8.368.481,11.865-1.656,2.23-4.765,3.057-7.342,2.501-1.109-.175-2.405-.567-3.315-.526-1.01.038-.045,2.272.521,2.905,1.182,1.618,3.184,2.378,5.076,2.325.441-.009.837-.125.914-.183.038-.018-.007,0-.01.017l.025-.033c.13-.171.108-.127.089-.41-.387-1.637-1.072-3.645-.61-5.494,1.404-6.622,9.382-7.625,14.366-4.463,6.781,3.976,8.436,14.338,3.334,20.269-2.903,3.405-7.484,4.987-11.629,5.636l.889-3.767c1.266.507,3.016.53,4.484.704,6.105.425,13.529,2.071,13.448,9.748.049,5.941-5.75,9.241-11.04,9.092-4.308-.007-8.234-1.447-11.766-3.285l3.026-1.417c.033-.019.016-.143.042-.105.022.027.12.167.292.332,2.294,2.002,5.608,3.474,7.375,6.412,2.489,3.796.886,9.593-3.276,11.504-4.455,1.968-9.317.774-13.49-1.141-4.42-2.157-7.905-6.187-11.325-9.196-2.217-2.128-4.772-3.49-7.388-4.983-4.264-2.552-8.451-6.742-8.652-12.012-.057-1.708.257-3.36.924-4.826.291,6.498,4.401,10.252,9.862,13.162,1.375.759,2.867,1.363,4.215,2.179,4.103,2.378,7.581,6.238,11.086,8.945,2.246,1.737,4.559,2.953,7.321,3.516,2.17.375,4.684.727,6.24-.885.764-1.021,1.094-2.623.367-3.791-1.521-2.457-4.438-3.628-6.491-5.973-.875-.949-1.573-2.573-1.195-3.996.208-1.117,1.283-1.854,2.4-1.645.226.042.433.119.626.226,3.116,1.636,6.516,2.809,9.791,2.798,2.832.032,6.132-1.102,6.772-3.964.592-3.101-1.139-4.987-4.314-5.736-2.511-.67-5.421-.741-8.146-1.102-1.323-.23-2.273-.29-3.621-1.158-1.55-1.005-.965-3.514.836-3.758,5.62-.786,11.389-3.747,11.115-10.058-.028-3.202-1.441-6.52-4.263-8.137-2.479-1.495-6.338-1.858-7.806.835-1.152,2.156.882,4.288.302,6.658-1.005,4.397-6.458,4.179-9.667,2.761-4.476-1.744-8.436-9.159-3.135-12.208,1.28-.692,3.058-.532,4.196-.3,1.504.242,2.966.783,4.282.07,1.473-.889,1.689-2.93,1.371-4.524-.569-2.959-3.663-4.923-6.576-5.695-6.394-2.097-10.61,1.415-14.236,6.55-1.584,2.04-2.883,4.507-4.94,6.158h0Z" fill="#000072"/>
        <path d="M381.65,333.124c5.774,6.229,4.23,16.906-3.708,20.544-1.009.493-2.08.829-3.172,1.031,1.577-1.569,3.078-2.989,4.239-4.588,3.844-4.893,3.739-11.056,2.641-16.987h0Z" fill="#000072"/>
      </g>
      <path d="M263.227,268.751" fill="none" stroke="#512717" stroke-linecap="round" stroke-miterlimit="10" stroke-width="35.199"/>
      <path d="M318.87,374.925c-14.463,20.628-55.76,18.965-55.76,18.965,0,0-.795.031-2.207.031-8.743,0-41.099-1.234-53.559-18.996-12.523-17.862-6.698-39.363,1.762-54.965.737-1.354,1.49-2.661,2.254-3.922,3.127-5.156,5.767-15.352,12.575-27.911l39.174-37.182,39.174,37.182c6.808,12.56,9.449,22.756,12.575,27.911.763,1.26,1.516,2.573,2.254,3.927,8.46,15.603,14.285,37.104,1.757,54.96Z" fill="#fff"/>
      <path d="M319.61,375.622c-14.655,20.902-56.501,19.217-56.501,19.217,0,0-.805.032-2.236.032-8.859,0-41.644-1.25-54.27-19.249-6.4-9.129-8.069-19.201-7.057-28.965,1.001-9.595,4.594-18.894,8.843-26.73.747-1.372,1.51-2.697,2.284-3.974,3.168-5.224,5.844-15.556,12.742-28.282l39.694-37.676,39.694,37.676c6.898,12.726,9.574,23.058,12.742,28.282.774,1.277,1.536,2.607,2.284,3.979,4.244,7.831,7.836,17.135,8.838,26.724,1.017,9.765-.652,19.837-7.057,28.965Z" fill="#fff"/>
      <path d="M319.61,375.622c-14.655,20.902-56.501,19.217-56.501,19.217,0,0-.805.032-2.236.032-8.859,0-41.644-1.25-54.27-19.249-6.4-9.129-8.069-19.201-7.057-28.965,7.02.837,16.276,3.417,25.405,11.338,13.585,11.789,28.171,17.966,38.158,17.966s24.573-6.178,38.158-17.966c9.129-7.921,18.38-10.501,25.4-11.338,1.017,9.765-.652,19.837-7.057,28.965Z" fill="#dfe7f2"/>
      <path d="M263.088,304.584c-23.069,0-53.189,12.646-52.416,11.369,3.168-5.224,5.844-15.556,12.742-28.282,0,0,25.768-37.676,39.694-37.676s39.694,37.676,39.694,37.676c6.898,12.726,9.574,23.058,12.742,28.282.774,1.277-29.363-11.369-52.458-11.369Z" fill="#5f5f82"/>
      <g opacity=".2">
        <path d="M302.332,285.021c-10.986,3.822-24.555,6.076-39.242,6.076s-28.236-2.248-39.216-6.065c5.516-7.733,26.913-36.607,39.237-36.607s33.7,28.847,39.221,36.597Z" fill="#000072"/>
      </g>
      <path d="M302.805,287.671c6.324,7.623,9.685,16.98,13.808,25.773,1.605,2.849,3.37,5.593,4.808,8.536,9.481,18.131,12.441,41.285-1.857,57.873-13.08,14.505-37.987,17.664-56.54,17.111-.005.003.086-4.253.084-4.253.001-.001.086,4.252.086,4.252-18.525.559-43.467-2.627-56.519-17.129-14.302-16.706-11.304-39.556-1.812-57.82,2.146-4.378,4.99-8.233,6.862-12.779,3.291-7.422,6.781-15.044,11.687-21.563-1.964,5.287-4.664,12.985-6.486,18.401-1.214,3.44-2.37,7.078-4.196,10.455-.567,1.064-1.226,2.11-1.788,3.174-9.638,17.296-14.37,40.458-.401,56.722,11.933,13.082,35.519,16.08,52.482,16.289,0,0,.087,4.253.085,4.252.001,0,.083-4.255.087-4.252,12.552-.101,25.614-1.756,37.32-6.32,8.759-3.414,16.152-9.022,20.081-17.544,6.964-14.264,3.469-31.058-3.211-44.873-1.353-2.943-3.08-5.719-4.587-8.579-4.147-9.133-6.72-18.241-9.993-27.726h0Z" fill="#000072"/>
      <g>
        <path d="M201.094,146.028c16.259-15.648,14.487-27.637,9.626-35.294-6.14-9.672-16.432-20.414-31.279-18.605-21.156,2.577-35.101,20.939-27.79,40.824,4.369,11.883,12.469,18.425,19.891,22.023,8.336,4.042,17.503,2.648,29.552-8.948Z" fill="#5f5f82"/>
        <g opacity=".3">
          <path d="M215.847,120.335c-6.186-10.673-17.438-24.051-34.294-21.995-17.632,2.153-30.488,14.76-31.157,30.317-3.998-18.166,9.424-34.137,29.044-36.528,20.336-2.475,32.125,18.587,36.407,28.206Z" fill="#fff"/>
        </g>
        <path d="M214.68,120.287c-6.898-10.523-14.452-23.24-27.712-25.72-4.162-.823-8.36-.27-12.511.779-10.942,2.744-20.694,11.524-22.36,22.938-1.734,11.206,4.31,23.089,12.92,30.088,4.45,3.622,9.783,6.151,15.378,7.645,1.123.291,1.796,1.443,1.496,2.565-.298,1.116-1.444,1.779-2.56,1.481-6.105-1.63-11.976-4.4-16.945-8.44-2.483-2.011-4.726-4.324-6.679-6.858-5.691-7.698-9.305-17.457-7.743-27.124,2.115-14.822,15.705-25.609,30.038-27.552,11.903-2.042,22.453,3.886,29.75,12.958,4.024,4.855,7.167,10.375,8.834,16.376.307,1.159-1.247,1.858-1.905.864h0Z" fill="#000072"/>
      </g>
      <g>
        <path d="M325.075,146.091c-16.243-15.665-14.459-27.652-9.59-35.304,6.15-9.666,16.453-20.397,31.298-18.573,21.153,2.599,35.08,20.975,27.748,40.853-4.381,11.878-12.488,18.412-19.914,22.003-8.34,4.033-17.506,2.63-29.543-8.978Z" fill="#5f5f82"/>
        <g opacity=".3">
          <path d="M310.349,120.383c6.197-10.667,17.463-24.033,34.316-21.96,17.63,2.171,30.473,14.791,31.126,30.349,4.017-18.162-9.389-34.147-29.007-36.558-20.333-2.496-32.144,18.554-36.436,28.169Z" fill="#fff"/>
        </g>
        <path d="M309.611,119.471c3.344-11.561,12.612-23.459,24.072-27.901,6.131-2.394,12.97-2.166,19.237-.404,12.459,3.281,23.458,13.477,25.314,26.593,1.552,9.669-2.072,19.423-7.771,27.116-5.803,7.643-14.451,12.892-23.64,15.274-2.69.629-3.722-3.258-1.075-4.043,8.401-2.193,16.117-6.855,21.386-13.765,9-12.014,10.517-27.474-.663-38.657-5.98-5.952-14.702-9.298-23.097-9.437-8.665.009-16.083,5.058-21.651,11.601-3.844,4.53-6.868,9.54-10.209,14.489-.635.996-2.238.278-1.904-.865h0Z" fill="#000072"/>
      </g>
      <path d="M276.837,279.379c39.569-.732,69.687-12.915,81.018-35.784,8.54-17.236,2.285-34.965,2.283-34.991-.216-1.037,4.05-73.423-51.825-98.718-15.754-7.132-30.554-9.032-45.148-9.196h0c-14.593.165-29.394,2.064-45.148,9.196-55.875,25.296-51.609,97.681-51.825,98.718-.002.026-6.256,17.756,2.283,34.991,11.331,22.869,41.45,35.052,81.018,35.784" fill="#fff"/>
      <path d="M357.855,243.594c-.741,1.494-1.56,2.937-2.456,4.337-12.84,20.07-41.573,30.763-78.565,31.449h-27.339c-37.485-.697-66.483-11.661-79.069-32.257-.703-1.145-1.355-2.323-1.953-3.529-8.536-17.238-2.285-34.962-2.285-34.99.221-1.04-4.049-73.426,51.829-98.718,7.878-3.568,15.517-5.825,23.007-7.214,7.496-1.389,14.842-1.903,22.139-1.986,14.593.166,29.397,2.069,45.146,9.2,55.878,25.292,51.613,97.678,51.829,98.718,0,.028,6.257,17.752-2.285,34.99Z" fill="#fff"/>
      <path d="M356.328,246.211c-.326.548-.636,1.123-.929,1.72-12.84,20.07-41.573,30.763-78.565,31.449,0,0-3.695.517-13.752.517s-13.587-.517-13.587-.517c-37.485-.697-66.483-11.661-79.069-32.257-.188-.343-.382-.675-.575-1.007,17.885,14.693,42.331,25.348,93.23,25.37,50.905.028,75.345-10.599,93.247-25.276Z" fill="#dfe7f2"/>
      <path d="M276.837,279.379c18.247-3.165,37.047-4.934,53.813-13.234,22.638-10.975,34.38-31.42,27.37-56.355-.107-.324-.206-.664-.254-.999l.043.299c-.114-.94-.035-2.111-.054-3.058-.206-22.569-5.018-45.704-17.148-64.97-12.942-20.466-33.724-32.41-57.346-36.392-26.224-4.224-55.075-.918-77.216,14.602-25.205,17.724-35.947,49.442-37.529,79.167-.185,2.874-.188,5.978-.179,8.863,0,1.104.054,1.471-.14,2.077-7.087,25.122,4.826,45.5,27.56,56.615,16.724,8.343,35.469,10.405,53.738,13.387-35.789,4.201-87.16-12.111-87.697-54.854-.041-5.522.646-11.058,2.274-16.34,0,0,.01-.032.01-.032-.022.09-.042.188-.028.283,0,0,.038-.269.038-.269-.029.033-.039.123-.035.117v-.312c-.059-6.722.343-13.487,1.193-20.151,4.346-35.779,21.671-68.697,56.84-82.022,25.074-9.808,57.098-9.871,82.208-.144,18.227,6.755,33.663,20.359,43.056,37.351,10.841,19.533,15.308,42.133,15.168,64.333,0,0-.007.635-.007.635l-.003.311c.003-.006-.009-.118-.042-.166l.043.299c.011-.113-.007-.229-.04-.336l.01.033c.388,1.272.734,2.582.998,3.881,4.72,22.294-4.437,42.12-23.679,54.018-18.293,11.19-41.729,15.989-62.963,13.367h0Z" fill="#000072"/>
      <path d="M224.466,225.079c6.124-3.013,11.65-6.143,13.876-7.812,4.037-3.027,6.152-6.988,6.475-14.177.692-15.42-8.153-25.217-21.734-26.415-12.539-1.106-27.337,4.84-35.773,19.984-5.908,10.605-7.099,31.956,8.968,35.554,10.606,2.375,24.51-5.323,28.189-7.133Z" fill="#5f5f82"/>
      <path d="M211.174,156.071c1.203-4.534,10.483-19.6,19.142-12.997,3.053,2.328,2.401,8.793-1.878,9.876-6.238,1.579-7.568.762-17.264,3.12Z" fill="#000072"/>
      <path d="M315.098,156.124c-1.199-4.535-10.463-19.611-19.129-13.016-3.055,2.325-2.41,8.79,1.868,9.878,6.237,1.586,7.567.77,17.261,3.138Z" fill="#000072"/>
      <g>
        <path d="M209.007,114.669c21.436-12.806,43.954-11.3,45.752-31.564,0,0,9.594,5.747,8.407,14.735,2.554-2.217,5.876-6.239,19.191-5.019,11.753,1.077,17.574-3.525,17.574-3.525,0,0,1.355,14.459-14.996,18.555" fill="#fff"/>
        <path d="M207.934,112.873c8.493-5.131,18.058-8.242,27.175-11.738,8.97-3.457,16.868-7.873,17.569-18.243.1-1.14,1.105-1.984,2.245-1.885.774.059,1.409.648,1.986,1.026.988.721,1.922,1.501,2.796,2.359,2.392,2.327,4.352,5.183,5.208,8.493.463,1.692.491,3.485.327,5.227l-3.445-1.853c6.006-6.15,14.02-6.126,21.952-5.445,4.964.282,10.237-.344,14.554-2.935.127-.079.3-.2.333-.224l.08-.058c1.252-.968,3.206-.061,3.299,1.504,1.375,10.148-7.265,18.511-17.078,18.75,1.991-.965,3.865-2.029,5.502-3.304,4.879-3.528,6.959-9.251,7.411-15.056,0,0,3.379,1.446,3.379,1.446-5.142,3.528-11.639,4.382-17.728,4.054-3.786-.283-7.94-.567-11.515.252-3.081.646-5.088,1.935-7.447,4.176-1.337,1.259-3.637.109-3.457-1.696.315-2.566-.329-5.073-1.754-7.266-1.424-2.178-3.447-4.137-5.641-5.558,0,0,3.158-1.609,3.158-1.609-.953,12.227-9.744,17.75-20.199,21.737-9.092,3.498-18.263,6.439-26.564,11.438-2.357,1.35-4.523-2.072-2.145-3.591h0Z" fill="#000072"/>
      </g>
      <g>
        <path d="M256.412,103.664c3.79-1.914,5.051-3.633,6.753-5.825" fill="#fff"/>
        <path d="M256.412,103.664c2.468-1.955,3.901-4.22,5.101-7.108,0,0,3.304,2.566,3.304,2.566-2.309,2.074-5.311,3.923-8.405,4.542h0Z" fill="#232333"/>
      </g>
      <path d="M198.648,200.24c2.328,4.206,5.643,7.527,9.736,9.623,6.986,3.566,17.196,2.854,22.287-3.379,2.84-3.512,3.769-8.209,4.33-12.871,2.657,4.852,3.121,10.706.65,15.874-3.927,8.282-14.435,11.286-22.839,8.993-8.016-2.016-14.867-9.844-14.164-18.241h0Z" fill="#000072"/>
      <path d="M301.863,225.079c-6.124-3.013-11.65-6.143-13.876-7.812-4.037-3.027-6.152-6.988-6.475-14.177-.691-15.42,8.153-25.217,21.734-26.415,12.539-1.106,27.337,4.84,35.773,19.984,5.908,10.605,7.099,31.956-8.968,35.554-10.606,2.375-24.51-5.323-28.189-7.133Z" fill="#5f5f82"/>
      <path d="M327.681,200.24c.701,8.398-6.147,16.223-14.164,18.241-8.402,2.294-18.915-.712-22.839-8.993-2.471-5.168-2.007-11.023.65-15.874.559,4.659,1.49,9.361,4.33,12.871,5.092,6.234,15.299,6.946,22.287,3.379,4.094-2.097,7.407-5.415,9.736-9.623h0Z" fill="#000072"/>
      <path d="M269.468,231.653c-2.49-.472-4.389-.947-6.627-.948-2.24.032-4.125.52-6.618,1.009.542-3.101,3.502-5.149,6.598-5.192,3.096.021,6.069,2.04,6.646,5.13h0Z" fill="#000072"/>
      <path d="M273.15,209.565c-1.181,3.301-4.78,5.702-7.317,7.041-1.673.882-3.669.881-5.341-.002-2.537-1.34-6.133-3.744-7.312-7.047-1.347-3.785,8.178-4.398,9.987-4.397,1.809,0,11.333.622,9.983,4.405Z" fill="#000072"/>
      <g opacity=".5">
        <path d="M267.306,207.091c-.784,1.335-4.14,1.309-4.14,1.309,0,0-3.356.023-4.139-1.313-.559-.956,3.39-1.11,4.14-1.11.75,0,4.699.158,4.139,1.113Z" fill="#fff"/>
      </g>
      <path d="M250.651,390.441c-13.089-1.062-32.965-4.896-41.54-18.029-4.359-6.672-6.799-12.984-7.806-19.085,4.21-.929,8.093-.664,11.147,1.543,3.85,2.788,24.49,22.421,38.198,35.571Z" fill="#424272"/>
      <path d="M275.525,390.441c13.089-1.062,32.965-4.896,41.54-18.029,4.359-6.672,6.799-12.984,7.806-19.085-4.21-.929-8.093-.664-11.147,1.543-3.85,2.788-24.49,22.421-38.198,35.571Z" fill="#424272"/>
      <g>
        <g>
          <g>
            <path d="M243.5,403.574c0,.741.039,1.455.116,2.141,1.848,17.376,26.1,18.831,34.768,18.831,12.441,0,59.021-4.254,72.436-36.268,3.712-8.862,3.203-17.857-.094-24.982v-.006c-2.323-5.023-6.03-9.117-10.621-11.578-7.23-3.895-16.651-3.751-26.321,3.159l2.578,1.754c-.205.083-.409.171-.609.254-21.309,9.045-25.021,18.156-42.9,24.96-18.228-1.654-26.841,2.689-28.871,15.102,0,.006,0,.017-.006.022-.321,1.992-.476,4.193-.476,6.611Z" fill="#5f5f82"/>
            <g opacity=".7">
              <path d="M243.982,396.941c6.5-16.961,28.645-9.775,28.645-9.775,0,0,7.766-1.199,21.398-12.724,19.76-16.706,27.383-17.243,27.383-17.818s-2.835-.731-5.654.254c-21.309,9.045-25.021,18.156-42.9,24.96-18.228-1.654-26.841,2.689-28.871,15.102Z" fill="#fff"/>
            </g>
            <g opacity=".2">
              <path d="M313.784,354.87l2.578,1.754c3.939-1.637,7.396-7.878,23.743-4.912-7.23-3.895-16.651-3.751-26.321,3.159Z" fill="#000072"/>
            </g>
            <g opacity=".2">
              <path d="M243.616,405.714c1.848,17.376,26.1,18.831,34.768,18.831,12.441,0,59.021-4.254,72.436-36.268,3.712-8.862,3.203-17.857-.094-24.982-.371,18.991-7.855,36.782-33.009,46.828-29.779,11.894-45.091-2.86-45.722-17.348-3.74,4.11.985,17.901-5.316,21.912-4.276,2.722-18.244,1.129-23.063-8.973Z" fill="#000072"/>
            </g>
          </g>
          <path d="M316.363,356.622c-6.361,3.76-12.445,7.626-18.21,12.175-4.176,3.218-8.32,6.611-12.806,9.439-3.669,2.321-7.617,4.25-11.671,5.771-.336.129-.698.172-1.035.142-7.09-.55-14.745-1.142-20.795,2.732-5.448,3.66-6.269,10.912-6.246,17.029-.031,11.104,10.887,15.924,20.513,17.524,9.79,1.747,19.862,1.003,29.642-.636,18.999-3.315,39.444-10.847,50.047-27.928,2.476-4.07,4.318-8.556,4.975-13.275,1.377-9.175-2.04-19.408-9.734-24.856-8.164-5.995-18.585-4.481-27.26.13,3.672-3.571,8.453-6.302,13.849-7.142,18.043-2.721,30.38,16.028,27.825,32.506-1.078,8.051-5.068,15.502-10.336,21.578-12.345,13.886-30.843,20.17-48.661,23.212-14.686,2.306-33.024,3.229-46.108-4.97-4.724-3.002-8.302-8.307-8.797-13.965-.4-5.43.048-11.062,2.352-16.078,3.768-8.311,12.999-10.624,21.297-10.743,2.646-.074,5.264.043,7.858.264l-1.034.142c3.805-1.47,7.455-3.224,10.953-5.304,4.116-2.438,8.986-6.016,13.032-8.624,6.274-4.019,13.139-7.265,20.353-9.123h0Z" fill="#000072"/>
          <path d="M261.629,392.026c-4.912-.384-9.999-.308-14.746,1.059-.238.078-.588.179-.777.277,0,0-1.037-4.052-1.037-4.052,5.64-.489,11.272.904,16.56,2.717h0Z" fill="#363d56"/>
          <path d="M259.554,406.315c-2.801.199-5.683.263-8.486-.005-2.988-.311-6.092-.784-8.802-2.231,0,0,2.495-3.358,2.495-3.358.334.363.902.721,1.343,1.013,4.016,2.491,8.818,3.733,13.45,4.582h0Z" fill="#363d56"/>
          <path d="M274.728,409.222c-6.028-4.591-6.9-14.908-1.205-20.1-.235,1.878-.521,3.548-.661,5.207-.423,5.141.587,9.869,1.866,14.893h0Z" fill="#363d56"/>
        </g>
        <g>
          <g>
            <path d="M282.734,403.574c0,.741-.039,1.455-.116,2.141-1.848,17.376-26.1,18.831-34.768,18.831-12.441,0-59.021-4.254-72.436-36.268-3.712-8.862-3.203-17.857.094-24.982v-.006c2.323-5.023,6.03-9.117,10.621-11.578,7.23-3.895,16.651-3.751,26.321,3.159l-2.578,1.754c.205.083.409.171.609.254,21.309,9.045,25.021,18.156,42.9,24.96,18.228-1.654,26.841,2.689,28.871,15.102,0,.006,0,.017.006.022.321,1.992.476,4.193.476,6.611Z" fill="#5f5f82"/>
            <g opacity=".7">
              <path d="M282.252,396.941c-6.5-16.961-28.645-9.775-28.645-9.775,0,0-7.766-1.199-21.398-12.724-19.76-16.706-27.383-17.243-27.383-17.818s2.835-.731,5.654.254c21.309,9.045,25.021,18.156,42.9,24.96,18.228-1.654,26.841,2.689,28.871,15.102Z" fill="#fff"/>
            </g>
            <g opacity=".2">
              <path d="M212.45,354.87l-2.578,1.754c-3.939-1.637-7.396-7.878-23.743-4.912,7.23-3.895,16.651-3.751,26.321,3.159Z" fill="#000072"/>
            </g>
            <g opacity=".2">
              <path d="M282.618,405.714c-1.848,17.376-26.1,18.831-34.768,18.831-12.441,0-59.021-4.254-72.436-36.268-3.712-8.862-3.203-17.857.094-24.982.371,18.991,7.855,36.782,33.009,46.828,29.779,11.894,45.091-2.86,45.722-17.348,3.74,4.11-.985,17.901,5.316,21.912,4.276,2.722,18.244,1.129,23.063-8.973Z" fill="#000072"/>
            </g>
          </g>
          <path d="M209.871,356.622c7.214,1.859,14.079,5.104,20.352,9.123,4.051,2.614,8.91,6.186,13.032,8.624,3.498,2.08,7.148,3.834,10.953,5.304l-1.034-.142c2.593-.221,5.211-.338,7.858-.264,8.306.124,17.521,2.424,21.297,10.743,2.306,5.016,2.75,10.648,2.352,16.078-.499,5.656-4.069,10.964-8.797,13.965-13.076,8.199-31.427,7.276-46.107,4.971-17.817-3.04-36.317-9.326-48.661-23.212-5.269-6.076-9.258-13.527-10.337-21.578-2.551-16.472,9.771-35.227,27.825-32.506,5.396.84,10.177,3.571,13.849,7.141-8.67-4.609-19.105-6.126-27.261-.129-7.693,5.449-11.111,15.68-9.734,24.856.658,4.719,2.499,9.205,4.975,13.274,10.605,17.082,31.046,24.611,50.046,27.928,9.779,1.639,19.852,2.383,29.642.636,9.618-1.6,20.55-6.42,20.512-17.524.025-6.115-.798-13.37-6.246-17.029-6.052-3.875-13.704-3.282-20.795-2.733-.364.033-.714-.018-1.035-.142-4.054-1.522-8.002-3.451-11.671-5.771-4.485-2.826-8.632-6.223-12.806-9.439-5.766-4.549-11.849-8.416-18.21-12.175h0Z" fill="#000072"/>
          <path d="M264.605,392.026c5.288-1.814,10.92-3.206,16.56-2.717,0,0-1.037,4.052-1.037,4.052-.192-.099-.539-.199-.777-.277-4.746-1.367-9.835-1.443-14.746-1.059h0Z" fill="#000072"/>
          <path d="M266.68,406.315c4.634-.849,9.433-2.091,13.45-4.582.441-.291,1.012-.652,1.344-1.013,0,0,2.495,3.358,2.495,3.358-2.71,1.447-5.814,1.921-8.802,2.232-2.801.269-5.689.204-8.486.005h0Z" fill="#000072"/>
          <path d="M251.506,409.222c1.279-5.022,2.288-9.753,1.866-14.893-.14-1.659-.426-3.33-.661-5.207,5.695,5.192,4.823,15.509-1.205,20.1h0Z" fill="#000072"/>
        </g>
      </g>
    </g>
    <g>
      <path d="M146.327,180.139c1.458-3.703,1.762-7.894.594-12.019-2.834-10.011-13.247-15.829-23.258-12.995-10.011,2.834-15.829,13.247-12.995,23.258,2.834,10.011,13.247,15.829,23.258,12.995,2.785-.788,5.243-2.164,7.283-3.954l8.925.42-3.807-7.706Z" fill="#fff"/>
      <g opacity=".5">
        <path d="M124.65,158.612c9.352-2.647,19.052,2.256,22.6,11.074-.112-.655-.256-1.31-.441-1.963-2.834-10.011-13.247-15.829-23.258-12.995-10.011,2.834-15.829,13.247-12.995,23.258.186.656.406,1.293.655,1.912-1.606-9.372,4.085-18.638,13.44-21.286Z" fill="#fff"/>
      </g>
      <path d="M128.803,193.75c-8.939,0-17.177-5.9-19.729-14.916-3.078-10.874,3.264-22.225,14.138-25.304,5.267-1.491,10.8-.841,15.58,1.828,4.779,2.67,8.232,7.042,9.724,12.309,1.164,4.111,1.029,8.375-.386,12.379l3.49,7.064c.26.526.222,1.151-.099,1.642-.321.49-.877.788-1.464.747l-8.273-.39c-2.178,1.789-4.666,3.087-7.406,3.863-1.858.526-3.732.776-5.575.777ZM128.82,156.063c-1.571,0-3.152.218-4.706.657-9.116,2.581-14.432,12.096-11.852,21.212,2.581,9.116,12.096,14.434,21.212,11.852,2.481-.702,4.716-1.916,6.642-3.605.322-.283.743-.438,1.171-.409l6.115.288-2.561-5.184c-.207-.419-.227-.906-.056-1.341,1.387-3.523,1.574-7.313.542-10.96-1.25-4.416-4.145-8.081-8.151-10.319-2.597-1.451-5.46-2.19-8.355-2.19Z" fill="#000072"/>
      <g opacity=".3">
        <path d="M146.4,179.943c-4.329,5.19-11.001,8.3-18.257,7.789-8.048-.567-14.758-5.443-18.051-12.211.117.953.307,1.91.577,2.863,2.834,10.011,13.247,15.829,23.258,12.995,2.785-.788,5.243-2.164,7.283-3.954l8.925.42-3.807-7.706c.026-.065.048-.131.073-.196Z" fill="#000072"/>
      </g>
      <path d="M134.87,167.952h0c-1.63-1.63-4.274-1.338-5.904.292l-.254.254-.254-.254c-1.63-1.63-4.274-1.922-5.904-.292h0c-1.63,1.63-1.63,4.274,0,5.904l.254.254,5.126,5.126c.43.43,1.127.43,1.556,0l5.126-5.126.254-.254c1.63-1.63,1.63-4.274,0-5.904Z" fill="#ff0068"/>
    </g>
  </g>
</svg>