<?xml version="1.0" encoding="UTF-8"?>
<svg id="Layer_1" xmlns="http://www.w3.org/2000/svg" version="1.1" viewBox="0 0 85 100">
  <!-- Generator: Adobe Illustrator 30.2.1, SVG Export Plug-In . SVG Version: 2.1.1 Build 1)  -->
  <defs>
    <style>
      .st0 {
        fill: #ff0;
      }
    </style>
  </defs>
  <path class="st0" d="M42.5,17.02c-1.78,0-3.54.11-5.26.35L20.38.5H6.57l-2.49,2.49c-1.96,1.98-1.96,5.17,0,7.15l14.52,14.52C8.1,32.12,1.26,44.38,1.26,58.26c0,22.78,18.46,41.24,41.24,41.24s41.24-18.46,41.24-41.24-18.48-41.24-41.24-41.24h0ZM42.5,81.17c-12.67,0-22.91-10.26-22.91-22.91,0-8.83,4.99-16.5,12.32-20.31,3.17-1.67,6.78-2.6,10.6-2.6,7.41,0,14,3.52,18.18,8.98,2.97,3.85,4.73,8.69,4.73,13.93,0,12.65-10.26,22.91-22.91,22.91h-.01Z"/>
</svg>