<?xml version="1.0" encoding="UTF-8"?>
<svg id="Layer_1" xmlns="http://www.w3.org/2000/svg" version="1.1" viewBox="0 0 110 25">
  <defs>
    <style>
      .st0 {
        fill: #161615;
      }

      .st1, .st2, .st3 {
        fill: #f5eb18;
      }

      .st2 {
        opacity: .3;
      }

      .st3 {
        opacity: .4;
      }
    </style>
  </defs>
  <path class="st3" d="M0,0v19c0,3.31,2.69,6,6,6h19V0H0ZM12.5,20c-3.45,0-6.25-2.8-6.25-6.25,0-2.1,1.04-3.96,2.63-5.09l-2.2-2.2c-.3-.3-.3-.79,0-1.09l.38-.37h2.09l2.55,2.55c.27-.03.53-.05.8-.05,3.45,0,6.25,2.8,6.25,6.25s-2.8,6.25-6.25,6.25Z"/>
  <path class="st2" d="M110,6v13c0,3.31-2.68,6-6,6H25V0h79c3.32,0,6,2.68,6,6Z"/>
  <path class="st3" d="M18.75,13.75c0,3.45-2.8,6.25-6.25,6.25s-6.25-2.8-6.25-6.25c0-2.1,1.04-3.96,2.63-5.09l-2.2-2.2c-.3-.3-.3-.79,0-1.09l.38-.37h2.09l2.55,2.55c.27-.03.53-.05.8-.05,3.45,0,6.25,2.8,6.25,6.25Z"/>
  <path class="st0" d="M25,0v25H6c-3.31,0-6-2.69-6-6V0h25Z"/>
  <path class="st1" d="M12.5,7.5c-.27,0-.53.02-.8.05l-2.55-2.55h-2.09l-.38.37c-.3.3-.3.79,0,1.09l2.2,2.2c-1.59,1.13-2.63,2.99-2.63,5.09,0,3.45,2.8,6.25,6.25,6.25s6.25-2.8,6.25-6.25-2.8-6.25-6.25-6.25ZM12.5,17.22c-1.92,0-3.47-1.56-3.47-3.47,0-1.34.76-2.5,1.87-3.08.48-.25,1.02-.39,1.6-.39,1.12,0,2.12.53,2.76,1.36.45.58.71,1.31.71,2.11,0,1.91-1.55,3.47-3.47,3.47Z"/>
</svg>
