<?xml version="1.0" encoding="UTF-8"?>
<svg id="Layer_1" xmlns="http://www.w3.org/2000/svg" version="1.1" viewBox="0 0 512 512">
  <!-- Generator: Adobe Illustrator 30.3.0, SVG Export Plug-In . SVG Version: 2.1.3 Build 182)  -->
  <defs>
    <style>
      .st0 {
        fill: #fbe731;
      }
    </style>
  </defs>
  <polygon class="st0" points="404.5 46.58 221.73 82.11 182.2 8.5 404.5 46.58"/>
  <polygon class="st0" points="310.94 83.57 450.55 79.94 183.65 503.5 343.21 137.24 256.18 132.52 310.94 83.57"/>
  <polygon class="st0" points="473.4 161.17 450.55 304.78 216.65 503.5 473.4 161.17"/>
  <polygon class="st0" points="70.51 189.46 108.95 189.46 108.95 192.72 80.67 224.63 70.51 214.84 70.51 189.46"/>
  <polygon class="st0" points="185.47 183.65 266.34 183.65 230.07 214.11 206.5 209.04 165.16 233.7 185.47 183.65"/>
  <polygon class="st0" points="83.2 432.06 145.21 432.06 121.64 470.86 83.2 432.06"/>
  <polygon class="st0" points="38.6 268.51 108.95 268.51 83.2 300.42 83.2 332.34 169.87 388.18 200.34 358.08 183.65 410.67 178.58 410.67 81.75 367.15 54.19 388.91 47.3 360.98 64.35 334.15 64.35 305.14 38.6 291.72 38.6 268.51"/>
</svg>