<?xml version="1.0" encoding="UTF-8"?>
<svg id="Layer_1" xmlns="http://www.w3.org/2000/svg" version="1.1" viewBox="0 0 512 512">
  <!-- Generator: Adobe Illustrator 30.3.0, SVG Export Plug-In . SVG Version: 2.1.3 Build 182)  -->
  <defs>
    <style>
      .st0 {
        fill: #0a0a14;
      }

      .st1 {
        fill: #ff0;
      }
    </style>
  </defs>
  <rect class="st0" width="512" height="512" rx="110" ry="110"/>
  <path class="st1" d="M256,147.73c-5.85,0-11.62.37-17.27,1.13l-55.36-55.36h-45.3l-8.2,8.2c-6.44,6.5-6.44,16.98,0,23.46l47.65,47.65c-34.48,24.5-56.92,64.75-56.92,110.3,0,74.81,60.59,135.4,135.4,135.4s135.4-60.59,135.4-135.4-60.65-135.4-135.4-135.4h0v.03ZM256,358.36c-41.57,0-75.23-33.69-75.23-75.23,0-29,16.36-54.15,40.44-66.67,10.4-5.48,22.27-8.53,34.79-8.53,24.3,0,45.98,11.56,59.69,29.48,9.75,12.63,15.52,28.52,15.52,45.73,0,41.52-33.69,75.23-75.23,75.23h.03Z"/>
</svg>