<?xml version="1.0" encoding="UTF-8"?>
<svg id="Layer_1" xmlns="http://www.w3.org/2000/svg" version="1.1" viewBox="0 0 42 51">
  <!-- Generator: Adobe Illustrator 30.1.0, SVG Export Plug-In . SVG Version: 2.1.1 Build 136)  -->
  <path d="M21,8.841c-.898,0-1.787.056-2.657.176L9.826.5H2.855l-1.259,1.259c-.991,1-.991,2.611,0,3.61l7.332,7.332C3.624,16.469.171,22.663.171,29.671c0,11.507,9.322,20.829,20.829,20.829s20.829-9.322,20.829-20.829-9.332-20.829-20.829-20.829ZM21,41.242c-6.397,0-11.572-5.184-11.572-11.572,0-4.462,2.518-8.332,6.221-10.257,1.602-.842,3.425-1.315,5.351-1.315,3.74,0,7.073,1.777,9.184,4.536,1.5,1.944,2.388,4.388,2.388,7.036,0,6.388-5.184,11.572-11.572,11.572Z" fill="#2d2d2d"/>
</svg>